<svg preserveAspectRatio="none" overflow="visible" style="display: block;" width="18.7692" height="18.7692" viewBox="0 0 18.7692 18.7692" fill="none" xmlns="http://www.w3.org/2000/svg">
<g id="vuesax/linear/money-recive">
<g id="Group">
<path id="Vector" d="M7.4298 10.7533C7.4298 11.5119 8.01635 12.1219 8.73584 12.1219H10.2061C10.8317 12.1219 11.3401 11.5901 11.3401 10.9253C11.3401 10.2136 11.0272 9.95557 10.5658 9.79134L8.21185 8.97019C7.75044 8.80596 7.43763 8.5557 7.43763 7.83622C7.43763 7.17929 7.94595 6.63968 8.57159 6.63968H10.0419C10.7613 6.63968 11.3479 7.24968 11.3479 8.00827" stroke="#14474B" stroke-width="1.31385" stroke-linecap="round" stroke-linejoin="round"/>
<path id="Vector_2" d="M9.38493 5.86546V12.9039" stroke="#14474B" stroke-width="1.31385" stroke-linecap="round" stroke-linejoin="round"/>
</g>
<path id="Vector_3" d="M17.2052 9.38469C17.2052 13.7016 13.7016 17.2052 9.3847 17.2052C5.06778 17.2052 1.56419 13.7016 1.56419 9.38469C1.56419 5.06776 5.06778 1.56417 9.3847 1.56417" stroke="#14474B" stroke-width="1.31385" stroke-linecap="round" stroke-linejoin="round"/>
<path id="Vector_4" d="M13.2946 2.34626V5.47447H16.4228" stroke="#14474B" stroke-width="1.31385" stroke-linecap="round" stroke-linejoin="round"/>
<path id="Vector_5" d="M17.2048 1.56418L13.2946 5.47443" stroke="#14474B" stroke-width="1.31385" stroke-linecap="round" stroke-linejoin="round"/>
<g id="Vector_6" opacity="0">
</g>
</g>
</svg>
